<?xml version="1.0" encoding="utf-8"?>
<!-- Generator: Adobe Illustrator 17.0.0, SVG Export Plug-In . SVG Version: 6.00 Build 0)  -->
<!DOCTYPE svg PUBLIC "-//W3C//DTD SVG 1.1//EN" "http://www.w3.org/Graphics/SVG/1.1/DTD/svg11.dtd">
<svg version="1.1" id="Layer_1" xmlns="http://www.w3.org/2000/svg" xmlns:xlink="http://www.w3.org/1999/xlink" x="0px" y="0px"
	 width="30px" height="30px" viewBox="0 0 30 30" enable-background="new 0 0 30 30" xml:space="preserve">
<path id="contorno2" fill="#362982" d="M20.063,2.474H9.937c-4.115,0-7.463,3.348-7.463,7.463v10.125
	c0,4.115,3.348,7.463,7.463,7.463h10.125c4.115,0,7.463-3.348,7.463-7.463V9.937C27.525,5.822,24.178,2.474,20.063,2.474z
	 M25.005,20.063c0,2.73-2.213,4.943-4.943,4.943H9.937c-2.73,0-4.943-2.213-4.943-4.943V9.937c0-2.73,2.213-4.943,4.943-4.943
	h10.125c2.73,0,4.943,2.213,4.943,4.943L25.005,20.063L25.005,20.063z"/>
</svg>
