<?xml version="1.0" encoding="utf-8"?>
<!-- Generator: Adobe Illustrator 17.0.0, SVG Export Plug-In . SVG Version: 6.00 Build 0)  -->
<!DOCTYPE svg PUBLIC "-//W3C//DTD SVG 1.1//EN" "http://www.w3.org/Graphics/SVG/1.1/DTD/svg11.dtd">
<svg version="1.1" id="Layer_1" xmlns="http://www.w3.org/2000/svg" xmlns:xlink="http://www.w3.org/1999/xlink" x="0px" y="0px"
	 width="123.75px" height="123.75px" viewBox="0 0 123.75 123.75" style="enable-background:new 0 0 123.75 123.75;"
	 xml:space="preserve">
<g id="contorno">
	<path d="M85.562,3.28c19.25,0,34.908,15.662,34.908,34.912v47.365c0,19.25-15.662,34.912-34.912,34.912H38.192
		c-19.25,0-34.912-15.662-34.912-34.912V38.192c0-19.25,15.662-34.912,34.912-34.912H85.562 M38.192,108.686h47.365
		c12.771,0,23.124-10.353,23.124-23.124l0-47.37c0-12.771-10.353-23.124-23.124-23.124H38.192
		c-12.771,0-23.124,10.352-23.124,23.124v47.37C15.069,98.333,25.421,108.686,38.192,108.686 M85.562,2.28h-47.37
		C18.39,2.28,2.28,18.39,2.28,38.192v47.365c0,19.802,16.11,35.912,35.912,35.912h47.365c19.802,0,35.912-16.11,35.912-35.912
		V38.192C121.47,18.39,105.362,2.28,85.562,2.28L85.562,2.28z M38.192,107.686c-12.199,0-22.124-9.925-22.124-22.124v-47.37
		c0-12.199,9.925-22.124,22.124-22.124h47.365c12.199,0,22.124,9.925,22.124,22.124l0,47.37c0,12.199-9.925,22.124-22.124,22.124
		H38.192L38.192,107.686z"/>
</g>
</svg>
