<?xml version="1.0" encoding="utf-8"?>
<!-- Generator: Adobe Illustrator 17.0.0, SVG Export Plug-In . SVG Version: 6.00 Build 0)  -->
<!DOCTYPE svg PUBLIC "-//W3C//DTD SVG 1.1//EN" "http://www.w3.org/Graphics/SVG/1.1/DTD/svg11.dtd">
<svg version="1.1" id="Layer_1" xmlns="http://www.w3.org/2000/svg" xmlns:xlink="http://www.w3.org/1999/xlink" x="0px" y="0px"
	 width="500px" height="500px" viewBox="0 0 500 500" enable-background="new 0 0 500 500" xml:space="preserve">
<g>
	<path fill="#fff" stroke="#000000" stroke-miterlimit="1" d="M53.238,178.663v52.871h61.12v-52.871h16.499v126.365h-16.499v-59.245
		h-61.12v59.245H36.927V178.663H53.238z"/>
	<path fill="#fff" stroke="#000000" stroke-miterlimit="1" d="M267.157,240.533c0,43.497-26.436,66.557-58.683,66.557
		c-33.372,0-56.808-25.873-56.808-64.12c0-40.122,24.936-66.37,58.683-66.37C244.846,176.6,267.157,203.036,267.157,240.533z
		 M169.103,242.595c0,26.998,14.624,51.184,40.309,51.184c25.873,0,40.497-23.811,40.497-52.496
		c0-25.123-13.124-51.371-40.309-51.371C182.602,189.912,169.103,214.847,169.103,242.595z"/>
	<path fill="#fff" stroke="#000000" stroke-miterlimit="1" d="M288.343,178.663h16.311v112.678h53.996v13.687h-70.307V178.663z"/>
	<path fill="#fff" stroke="#000000" stroke-miterlimit="1" d="M397.268,265.28l-13.124,39.747h-16.873l42.934-126.365h19.686
		l43.122,126.365h-17.437l-13.499-39.747H397.268z M438.702,252.531l-12.374-36.372c-2.812-8.25-4.688-15.749-6.562-23.061h-0.375
		c-1.875,7.499-3.937,15.186-6.374,22.873l-12.374,36.559H438.702z"/>
</g>
</svg>
